<?xml version="1.0" encoding="UTF-8" standalone="no"?>
<!-- Generator: Adobe Illustrator 16.0.0, SVG Export Plug-In . SVG Version: 6.00 Build 0)  -->
<!DOCTYPE svg  PUBLIC '-//W3C//DTD SVG 1.1//EN'  'http://www.w3.org/Graphics/SVG/1.1/DTD/svg11.dtd'>
<svg id="Capa_1" style="enable-background:new 0 0 444.704 444.705" xmlns="http://www.w3.org/2000/svg" xml:space="preserve" height="512px" viewBox="0 0 444.704 444.705" width="512px" version="1.1" y="0px" x="0px" xmlns:xlink="http://www.w3.org/1999/xlink">
	<g fill="#fff">
		<path d="m90.997 86.881h28.2c1.396 0 2.515-1.119 2.515-2.505 0-1.387-1.119-2.525-2.515-2.525h-28.2c-1.396 0-2.515 1.138-2.515 2.525-0.003 1.386 1.116 2.505 2.512 2.505z"/>
		<path d="m423.26 325.75v-28.199c0-1.387-1.118-2.506-2.515-2.506-1.387 0-2.505 1.119-2.505 2.506v28.199c0 1.396 1.118 2.525 2.505 2.525 1.41 0 2.52-1.12 2.52-2.53z"/>
		<path d="m0 412.79c0 14.152 11.504 25.664 25.656 25.664h158.88c9.429 0 17.644-5.125 22.07-12.736 2.658-4.561 7.459-8.961 12.747-8.961h199.69c14.144 0 25.656-11.502 25.656-25.646v-158.89c0-14.153-11.504-25.656-25.656-25.656h-198.99c-5.279 0-9.562 2.247-9.562 5.011s4.283 5.011 9.562 5.011h198.98c8.606 0 15.625 7.019 15.625 15.635v158.88c0 8.607-7.009 15.617-15.625 15.617h-199.28c-5.278 0-9.562-2.219-9.562-4.963 0-2.736 4.284-4.963 9.562-4.963h180.71c1.396 0 2.516-1.119 2.516-2.506v-165.26c0-1.387-1.119-2.505-2.516-2.505h-180.71c-5.278 0-9.562-4.284-9.562-9.562v-130.84c0-14.162-11.504-25.666-25.656-25.666h-158.88c-14.146-0.003-25.66 11.501-25.66 25.663v326.69zm219.76-181.26h168.65c5.278 0 9.562 4.283 9.562 9.562v141.12c0 5.279-4.284 9.562-9.562 9.562h-168.65c-5.278 0-9.562-4.283-9.562-9.562v-141.11c-0.01-5.28 4.27-9.57 9.56-9.57zm-19.6-145.43v326.69c0 8.625-6.999 15.635-15.625 15.635h-158.88c-8.606 0-15.625-7-15.625-15.635v-326.68c0-8.606 7.009-15.635 15.625-15.635h158.88c8.61-0.003 15.62 7.015 15.62 15.632z"/>
		<path d="m19.957 104.66v286.82c0 1.387 1.119 2.506 2.505 2.506h165.26c1.396 0 2.515-1.119 2.515-2.506v-286.82c0-1.377-1.118-2.505-2.515-2.505h-165.26c-1.384-0.01-2.503 1.12-2.503 2.5zm14.583 2.5h141.11c5.278 0 9.562 4.284 9.562 9.562v262.69c0 5.277-4.284 9.562-9.562 9.562h-141.11c-5.278 0-9.562-4.285-9.562-9.562v-262.69c0-5.27 4.274-9.56 9.562-9.56z"/>
		<path d="m119.54 399.72h-28.887c-5.929 0-10.758 4.818-10.758 10.758v1.721c0 5.938 4.829 10.758 10.758 10.758h28.888c5.929 0 10.758-4.82 10.758-10.758v-1.721c0-5.94-4.83-10.76-10.76-10.76zm5.75 12.47c0 3.176-2.572 5.748-5.747 5.748h-28.887c-3.156 0-5.747-2.582-5.747-5.748v-1.721c0-3.156 2.591-5.738 5.747-5.738h28.888c3.175 0 5.747 2.582 5.747 5.738v1.72z"/>
		<path d="m258.14 15.363c-14.4-6.053-29.662-9.113-45.354-9.113-29.644 0-57.939 10.959-79.666 30.896 0 0-0.268 0.239-0.622 0.564-0.334 0.315 0.909 2.218 2.773 4.255 1.874 2.056 3.672 3.433 4.006 3.136l0.622-0.564c19.881-18.227 45.757-28.257 72.886-28.257 14.344 0 28.305 2.802 41.482 8.329 43.892 18.417 69.959 63.237 65.378 109.62-0.363 3.682-3.729 5.757-7.267 4.686l-9.065-2.744c-3.529-1.081-4.982 0.688-3.242 3.939l12.623 23.648c1.74 3.251 5.785 4.485 9.046 2.745l23.639-12.623c3.261-1.74 3.031-4.016-0.507-5.097l-10.031-3.041c-3.538-1.062-5.862-4.896-5.441-8.559 5.95-51.438-22.67-101.44-71.27-121.84z"/>
	</g>
</svg>
